PathFileType	4	(X/Y/Z)	/Users/niels/Desktop/University/Third Semester/Perception and Action/Exam/Gymnastics Motion Tracking/Code for Gym Tracking/Scripts/Analyzed Data/kraft_bad_id5_2_nmspeed_Sports2D/kraft_bad_id5_2_nmspeed_Sports2D_px_person00.trc
DataRate	CameraRate	NumFrames	NumMarkers	Units	OrigDataRate	OrigDataStartFrame	OrigNumFrames
49.54128440366972	49.54128440366972	12	22	m	49.54128440366972	95	109
Frame#	Time	Hip			RHip			RKnee			RAnkle			RBigToe			RSmallToe			RHeel			LHip			LKnee			LAnkle			LBigToe			LSmallToe			LHeel			Neck			Head			Nose			RShoulder			RElbow			RWrist			LShoulder			LElbow			LWrist		
		X1	Y1	Z1	X2	Y2	Z2	X3	Y3	Z3	X4	Y4	Z4	X5	Y5	Z5	X6	Y6	Z6	X7	Y7	Z7	X8	Y8	Z8	X9	Y9	Z9	X10	Y10	Z10	X11	Y11	Z11	X12	Y12	Z12	X13	Y13	Z13	X14	Y14	Z14	X15	Y15	Z15	X16	Y16	Z16	X17	Y17	Z17	X18	Y18	Z18	X19	Y19	Z19	X20	Y20	Z20	X21	Y21	Z21	X22	Y22	Z22
95	1.917592592592593	1.6368540457618181	-0.7087456641318428	0.0	1.6348841434144536	-0.7083819197980515	0.0	1.7299578732195218	-0.846110266435049	0.0	1.7343394216283496	-0.9831828735881455	0.0	1.8091226392810886	-0.9762842358256408	0.0	1.7690819969979674	-0.9638880793056362	0.0	1.7282682651580954	-0.9916948214098464	0.0	1.6401145133124324	-0.7060550434220113	0.0	1.724016501364551	-0.8451099093764701	0.0	1.725471083698649	-0.9726106839955542	0.0	1.8079071627265402	-0.9660154175756129	0.0	1.7866568567066752	-0.9783974902942993	0.0	1.7068987029211977	-0.9814590433307572	0.0	1.5658448535295257	-0.5300102137991904	0.0	1.5666563634809134	-0.43652194647293685	0.0	1.6034215169232375	-0.48163487800389265	0.0	1.5708694792297029	-0.56166535211049	0.0	1.573754188916557	-0.6649385944009503	0.0	1.5943298778964041	-0.7516551504213436	0.0	1.555052848904253	-0.5485091330369276	0.0	1.5663658316787568	-0.6482005114842451	0.0	1.579478813464945	-0.6972726653316556	0.0
96	1.937777777777778	1.6402943699328416	-0.7050262504472936	0.0	1.638640174238561	-0.704282219375454	0.0	1.7309351409740885	-0.8414537853007911	0.0	1.73412487237301	-0.978843559711332	0.0	1.8038380098238358	-0.9720657276800347	0.0	1.7693342890845534	-0.9620406616795781	0.0	1.7280616852765864	-0.9877398543541316	0.0	1.6429072902672295	-0.7022135816836104	0.0	1.7232167137574355	-0.8413424394217554	0.0	1.7248192131569557	-0.9677092032989102	0.0	1.7988510728942397	-0.9609486030515716	0.0	1.7802682420024443	-0.9731683019253373	0.0	1.7062762567389862	-0.9769810331724242	0.0	1.5786370564422265	-0.5221254795224529	0.0	1.5845039949820612	-0.428071009357839	0.0	1.6189532964889508	-0.4749441282839334	0.0	1.582044501200813	-0.5541068747613591	0.0	1.5787804581854128	-0.6579209852438745	0.0	1.5940316463612931	-0.745603839736978	0.0	1.5666982748712333	-0.5411396623284003	0.0	1.5724283792884657	-0.6420964153919113	0.0	1.5840746089424893	-0.7013571842357023	0.0
97	1.9579629629629631	1.6427029829765512	-0.6988755909136373	0.0	1.6413195421571138	-0.6979456071752698	0.0	1.7316563688418156	-0.8342688871231473	0.0	1.7337797614345476	-0.9723155044122443	0.0	1.7988612773084185	-0.9655642403084868	0.0	1.7696668713209787	-0.9587302081445459	0.0	1.727763151601252	-0.9819774681276436	0.0	1.6446004764484408	-0.695986461662563	0.0	1.7219285574162932	-0.8347398300170522	0.0	1.724107374533458	-0.960711073727639	0.0	1.789767654080801	-0.9533236204492511	0.0	1.7738111966033319	-0.9650282469370196	0.0	1.7057826815943435	-0.9703386312014041	0.0	1.5892881937250432	-0.5127357004015873	0.0	1.599536530151674	-0.41849653931664316	0.0	1.6319363450804167	-0.4668097462969425	0.0	1.5909733765464025	-0.544712500710689	0.0	1.5824068834012484	-0.6484007406873116	0.0	1.5930965098597971	-0.7365968551935905	0.0	1.5764434433517156	-0.5320391854790618	0.0	1.5771742688868948	-0.6333468456492757	0.0	1.5866898025070906	-0.6999893272725914	0.0
98	1.9781481481481484	1.6442498905503244	-0.690810822948887	0.0	1.6431353004492002	-0.6898468976867814	0.0	1.732218649810666	-0.8251329261925828	0.0	1.7332569686022272	-0.9641326791540847	0.0	1.794352021799373	-0.9575254802968786	0.0	1.7699842469704	-0.9541516691774838	0.0	1.7272966391145974	-0.9747847341922694	0.0	1.6453430017117694	-0.6879512562873774	0.0	1.7200748582631218	-0.8261735671624353	0.0	1.7231907839115645	-0.9523323658280347	0.0	1.7812541273372586	-0.944157683523188	0.0	1.767728946740595	-0.955107381220594	0.0	1.7052691297518436	-0.9622230116433289	0.0	1.5981058542504962	-0.502103369434358	0.0	1.6120946160077647	-0.40799496078258973	0.0	1.6427443387928982	-0.45742934731200696	0.0	1.598082858260591	-0.5338757009927141	0.0	1.5850276097472131	-0.6370007433207305	0.0	1.5919892092426304	-0.7253733886467431	0.0	1.5846260763934468	-0.5216124502626891	0.0	1.5809841278933887	-0.6225428188129837	0.0	1.5881184552477408	-0.6940932827753113	0.0
99	1.9983333333333335	1.6450930136562907	-0.6813353721275494	0.0	1.6442758866950646	-0.6804459566125209	0.0	1.7326933885711524	-0.8145926135621313	0.0	1.7324935343431445	-0.9548253623811164	0.0	1.7903724010882232	-0.9487122287030365	0.0	1.7701811497092954	-0.9485700475778894	0.0	1.72654422017826	-0.9665308926078976	0.0	1.6453024882882303	-0.6786391523388228	0.0	1.7176286652092676	-0.816422351266257	0.0	1.7220000996183022	-0.9431529186359022	0.0	1.7737518444340423	-0.9344550574446701	0.0	1.7622674815233965	-0.944439140542702	0.0	1.704622026844169	-0.9533186215334684	0.0	1.6054185934617882	-0.49054681969302355	0.0	1.6225375612016297	-0.3968083781994597	0.0	1.651756876097574	-0.44708324855858805	0.0	1.6037594588918824	-0.5220266782731778	0.0	1.5869614793633542	-0.6243378638234657	0.0	1.5910427255613604	-0.7126770487573614	0.0	1.5916261167109063	-0.5102791055746878	0.0	1.5842481091026532	-0.6102900702410085	0.0	1.5891341722803636	-0.6849685717299171	0.0
100	2.0185185185185186	1.6453702134294437	-0.6709085025782716	0.0	1.6448899071925944	-0.6701589278901193	0.0	1.733136687754094	-0.8031138352150868	0.0	1.7314364273275302	-0.944824845042093	0.0	1.7869034176030891	-0.9397572369397443	0.0	1.7701540704267806	-0.9422935053910133	0.0	1.7253944857436632	-0.9575368214367787	0.0	1.6446478813025824	-0.6685014955407261	0.0	1.714603952034504	-0.8061278680547364	0.0	1.7205329356031827	-0.9336284324866023	0.0	1.767526082918608	-0.9249846712909577	0.0	1.7575186149944537	-0.9337792970087855	0.0	1.7037825336447712	-0.9442004866747443	0.0	1.6115634026107741	-0.47838815442832044	0.0	1.6312570945918332	-0.3851803129580274	0.0	1.6593468494772492	-0.43606789730245465	0.0	1.6083455742706514	-0.5095590677746109	0.0	1.5884722922084455	-0.6109411074235863	0.0	1.5904694500897854	-0.699149195268047	0.0	1.5978179318134964	-0.4984189420696046	0.0	1.5872750866747518	-0.5971425695264292	0.0	1.590400729747153	-0.6739906868266898	0.0
101	2.038703703703704	1.6451922109113142	-0.6599612046748753	0.0	1.6450767630761542	-0.6593886073426894	0.0	1.733597433806373	-0.7910949862590667	0.0	1.7300548706105572	-0.9344630170917512	0.0	1.7838810264257412	-0.9311016764355886	0.0	1.7697945386345504	-0.9356095781687379	0.0	1.7237677011740116	-0.9480901714410536	0.0	1.6435516537064472	-0.6579418760156324	0.0	1.7110596559228102	-0.7958055782613478	0.0	1.7188373930320924	-0.9241191748406595	0.0	1.7626910738238553	-0.9162436063607986	0.0	1.7534836771726081	-0.9236128627506673	0.0	1.7027492938076092	-0.9353022493577948	0.0	1.616842287514577	-0.4659638878994371	0.0	1.638632835432424	-0.3733741486158856	0.0	1.6658378004619925	-0.42469293335171443	0.0	1.6121247001348535	-0.4968360938970444	0.0	1.5897759886735672	-0.5972680088204932	0.0	1.5903803629078297	-0.6853306114279347	0.0	1.603512381193789	-0.4863934369914857	0.0	1.5902433711579262	-0.5836199691200897	0.0	1.592450539897818	-0.6623023216928781	0.0
102	2.058888888888889	1.6446396392679106	-0.6488976366555897	0.0	1.644889511072868	-0.6485477833635823	0.0	1.7341144309590828	-0.7788773468455422	0.0	1.728351296832615	-0.923992216954388	0.0	1.7812324617213866	-0.9229517772795381	0.0	1.7689724994606968	-0.928709436474534	0.0	1.7216347771872196	-0.9384570560010997	0.0	1.6421949884431277	-0.6473494933338082	0.0	1.7070989521049527	-0.785853854977311	0.0	1.7169919820491881	-0.9149002719762055	0.0	1.7592629424634965	-0.9084611398120049	0.0	1.750133881392391	-0.9142210040907952	0.0	1.7015620469348884	-0.9269010048400551	0.0	1.6214894431038687	-0.4536218768607421	0.0	1.644974584050143	-0.36168447628147404	0.0	1.6714784127354245	-0.41328339808666387	0.0	1.6153140863834972	-0.48420309932683675	0.0	1.5910331381043905	-0.5837338680582163	0.0	1.5908039047568048	-0.6716919102201608	0.0	1.6089287673878596	-0.4745582026010803	0.0	1.5932293830297195	-0.570221420511451	0.0	1.5957083368825715	-0.650619392921083	0.0
103	2.0790740740740743	1.6437661079517811	-0.6380558944027939	0.0	1.6443531872401824	-0.638018486847292	0.0	1.7347129741351264	-0.7667098366461709	0.0	1.7263694041782744	-0.9135676513466626	0.0	1.7788729514824198	-0.9152849574473871	0.0	1.7675476440472528	-0.9216542314575136	0.0	1.7190313275423765	-0.9288419667624415	0.0	1.6407403570403687	-0.6370765393886869	0.0	1.702837807666182	-0.7765392655825202	0.0	1.7150750499951208	-0.9061383077747758	0.0	1.7571965732614423	-0.901606285006876	0.0	1.7474214976464844	-0.9057048126101649	0.0	1.7002692687911585	-0.9191040223771951	0.0	1.625677085482239	-0.4416701390540829	0.0	1.6505072362673525	-0.3503953124039849	0.0	1.6764564052483306	-0.4021355551817836	0.0	1.61807417621502	-0.47195556240423914	0.0	1.5923476878454135	-0.570690980881161	0.0	1.5917032105769928	-0.6586091242996907	0.0	1.6142041944296501	-0.4632159518700936	0.0	1.596264691810006	-0.557376454283825	0.0	1.600499076999802	-0.6393028991545785	0.0
104	2.0992592592592594	1.6426115011824243	-0.6276677836156941	0.0	1.6434919419899345	-0.6280836566697933	0.0	1.7354045222812282	-0.7547352391917654	0.0	1.7241867826230635	-0.9032439939445291	0.0	1.7766955040090928	-0.9079454094619426	0.0	1.765418602298378	-0.9144197439156608	0.0	1.7160458096264164	-0.9193544124468848	0.0	1.639295597394695	-0.6273826866225649	0.0	1.6983764680778906	-0.7679967776528879	0.0	1.7131448947668486	-0.8978810891358674	0.0	1.7563773492526553	-0.8954738357834071	0.0	1.7452528279719024	-0.8980028953459411	0.0	1.6989110145837263	-0.911882608714617	0.0	1.6295365169798777	-0.43032390693905964	0.0	1.6553961835002273	-0.33971795007698374	0.0	1.6809236902943439	-0.3914600270315925	0.0	1.6205205461897834	-0.46029877257643353	0.0	1.5937774600554986	-0.558384348065779	0.0	1.5929976927289524	-0.6463183207150119	0.0	1.6194162958859462	-0.45256047427861806	0.0	1.5993663305909693	-0.5453782466886431	0.0	1.6070213132169417	-0.6285285880127244	0.0
105	2.119444444444445	1.64122164379456	-0.6178638041840997	0.0	1.642357761425979	-0.6189012259696928	0.0	1.736186295158195	-0.7430465132086416	0.0	1.72189465899861	-0.89303735174343	0.0	1.774595723948028	-0.9007820390559614	0.0	1.76257872651615	-0.9069937240210592	0.0	1.7127897574523372	-0.9100482242235978	0.0	1.6379126432596844	-0.6184141860009905	0.0	1.6938094885144797	-0.7602673970599058	0.0	1.7112431461486879	-0.890102582117177	0.0	1.7565864237833537	-0.8898301825404719	0.0	1.7434843156286344	-0.8909629788748405	0.0	1.6975251921575403	-0.9051542417505218	0.0	1.6331671033711173	-0.41969813838525316	0.0	1.6597743145838701	-0.3297666721729625	0.0	1.685005576574466	-0.38136810795443543	0.0	1.6227322087106293	-0.44934790494794796	0.0	1.5953451084860908	-0.5469403663745637	0.0	1.5945845836259096	-0.6349181902626444	0.0	1.6245916267459075	-0.44267617094288186	0.0	1.6025245806038184	-0.5343693965112709	0.0	1.6152913818771606	-0.6183869098837097	0.0
106	2.13962962962963	1.6396595542481536	-0.6087060986243192	0.0	1.641037955341054	-0.6105205509228702	0.0	1.7370395579943552	-0.7317491665472524	0.0	1.7195786034159894	-0.8830066502164584	0.0	1.772510657962573	-0.8937471528101242	0.0	1.759143013689831	-0.8994522006445373	0.0	1.70937865780774	-0.9009905156188008	0.0	1.6366117604204222	-0.6102217022875588	0.0	1.6892409611274508	-0.7533358436014207	0.0	1.7094040082199884	-0.8827704894286078	0.0	1.7575177517307252	-0.8845217734424276	0.0	1.741961029723038	-0.8844411589310511	0.0	1.6961526816552048	-0.8988575015229533	0.0	1.6366358681276596	-0.4098346538312673	0.0	1.6637518382572591	-0.3205757323466106	0.0	1.688795690387181	-0.3719023611504164	0.0	1.6247618726846977	-0.4391551640880364	0.0	1.5970413324494195	-0.5363969081115723	0.0	1.596355620676035	-0.6244187571225298	0.0	1.629709451174046	-0.43357517207156565	0.0	1.605690075064701	-0.5243752957607842	0.0	1.6250840205891088	-0.6089338092661685	0.0
